<svg width="60" height="60" viewBox="0 0 60 60" fill="none" xmlns="http://www.w3.org/2000/svg">
<path d="M18 54H9C8.20435 54 7.44129 53.6839 6.87868 53.1213C6.31607 52.5587 6 51.7956 6 51V42C6 41.2044 5.68393 40.4413 5.12132 39.8787C4.55871 39.3161 3.79565 39 3 39C2.20435 39 1.44129 39.3161 0.87868 39.8787C0.31607 40.4413 0 41.2044 0 42V51C0 53.3869 0.948212 55.6761 2.63604 57.364C4.32387 59.0518 6.61305 60 9 60H18C18.7956 60 19.5587 59.6839 20.1213 59.1213C20.6839 58.5587 21 57.7956 21 57C21 56.2044 20.6839 55.4413 20.1213 54.8787C19.5587 54.3161 18.7956 54 18 54V54ZM3 21C3.79565 21 4.55871 20.6839 5.12132 20.1213C5.68393 19.5587 6 18.7956 6 18V9C6 8.20435 6.31607 7.44129 6.87868 6.87868C7.44129 6.31607 8.20435 6 9 6H18C18.7956 6 19.5587 5.68393 20.1213 5.12132C20.6839 4.55871 21 3.79565 21 3C21 2.20435 20.6839 1.44129 20.1213 0.87868C19.5587 0.31607 18.7956 0 18 0H9C6.61305 0 4.32387 0.948212 2.63604 2.63604C0.948212 4.32387 0 6.61305 0 9V18C0 18.7956 0.31607 19.5587 0.87868 20.1213C1.44129 20.6839 2.20435 21 3 21ZM51 0H42C41.2044 0 40.4413 0.31607 39.8787 0.87868C39.3161 1.44129 39 2.20435 39 3C39 3.79565 39.3161 4.55871 39.8787 5.12132C40.4413 5.68393 41.2044 6 42 6H51C51.7956 6 52.5587 6.31607 53.1213 6.87868C53.6839 7.44129 54 8.20435 54 9V18C54 18.7956 54.3161 19.5587 54.8787 20.1213C55.4413 20.6839 56.2044 21 57 21C57.7956 21 58.5587 20.6839 59.1213 20.1213C59.6839 19.5587 60 18.7956 60 18V9C60 6.61305 59.0518 4.32387 57.364 2.63604C55.6761 0.948212 53.3869 0 51 0ZM42 30C42 29.2044 41.6839 28.4413 41.1213 27.8787C40.5587 27.3161 39.7956 27 39 27H33V21C33 20.2044 32.6839 19.4413 32.1213 18.8787C31.5587 18.3161 30.7956 18 30 18C29.2044 18 28.4413 18.3161 27.8787 18.8787C27.3161 19.4413 27 20.2044 27 21V27H21C20.2044 27 19.4413 27.3161 18.8787 27.8787C18.3161 28.4413 18 29.2044 18 30C18 30.7956 18.3161 31.5587 18.8787 32.1213C19.4413 32.6839 20.2044 33 21 33H27V39C27 39.7956 27.3161 40.5587 27.8787 41.1213C28.4413 41.6839 29.2044 42 30 42C30.7956 42 31.5587 41.6839 32.1213 41.1213C32.6839 40.5587 33 39.7956 33 39V33H39C39.7956 33 40.5587 32.6839 41.1213 32.1213C41.6839 31.5587 42 30.7956 42 30ZM57 39C56.2044 39 55.4413 39.3161 54.8787 39.8787C54.3161 40.4413 54 41.2044 54 42V51C54 51.7956 53.6839 52.5587 53.1213 53.1213C52.5587 53.6839 51.7956 54 51 54H42C41.2044 54 40.4413 54.3161 39.8787 54.8787C39.3161 55.4413 39 56.2044 39 57C39 57.7956 39.3161 58.5587 39.8787 59.1213C40.4413 59.6839 41.2044 60 42 60H51C53.3869 60 55.6761 59.0518 57.364 57.364C59.0518 55.6761 60 53.3869 60 51V42C60 41.2044 59.6839 40.4413 59.1213 39.8787C58.5587 39.3161 57.7956 39 57 39Z" fill="#1CBBE2"/>
</svg>
