<svg width="57" height="60" viewBox="0 0 57 60" fill="none" xmlns="http://www.w3.org/2000/svg">
<path d="M15 24H18C18.7956 24 19.5587 23.6839 20.1213 23.1213C20.6839 22.5587 21 21.7956 21 21C21 20.2044 20.6839 19.4413 20.1213 18.8787C19.5587 18.3161 18.7956 18 18 18H15C14.2044 18 13.4413 18.3161 12.8787 18.8787C12.3161 19.4413 12 20.2044 12 21C12 21.7956 12.3161 22.5587 12.8787 23.1213C13.4413 23.6839 14.2044 24 15 24ZM27 42H15C14.2044 42 13.4413 42.3161 12.8787 42.8787C12.3161 43.4413 12 44.2043 12 45C12 45.7957 12.3161 46.5587 12.8787 47.1213C13.4413 47.6839 14.2044 48 15 48H27C27.7956 48 28.5587 47.6839 29.1213 47.1213C29.6839 46.5587 30 45.7957 30 45C30 44.2043 29.6839 43.4413 29.1213 42.8787C28.5587 42.3161 27.7956 42 27 42ZM27 30H15C14.2044 30 13.4413 30.3161 12.8787 30.8787C12.3161 31.4413 12 32.2043 12 33C12 33.7957 12.3161 34.5587 12.8787 35.1213C13.4413 35.6839 14.2044 36 15 36H27C27.7956 36 28.5587 35.6839 29.1213 35.1213C29.6839 34.5587 30 33.7957 30 33C30 32.2043 29.6839 31.4413 29.1213 30.8787C28.5587 30.3161 27.7956 30 27 30ZM47.76 22.14C47.9897 21.5937 48.0525 20.9915 47.9404 20.4096C47.8283 19.8276 47.5463 19.2919 47.13 18.87L29.13 0.87C28.882 0.636649 28.5985 0.444243 28.29 0.3C28.2005 0.28728 28.1096 0.28728 28.02 0.3L27.18 0H9C6.61305 0 4.32387 0.948212 2.63604 2.63604C0.948212 4.32387 0 6.61305 0 9V51C0 53.3869 0.948212 55.6761 2.63604 57.364C4.32387 59.0518 6.61305 60 9 60H27C27.7956 60 28.5587 59.6839 29.1213 59.1213C29.6839 58.5587 30 57.7957 30 57C30 56.2043 29.6839 55.4413 29.1213 54.8787C28.5587 54.3161 27.7956 54 27 54H9C8.20435 54 7.44129 53.6839 6.87868 53.1213C6.31607 52.5587 6 51.7957 6 51V9C6 8.20435 6.31607 7.44129 6.87868 6.87868C7.44129 6.31607 8.20435 6 9 6H24V15C24 17.3869 24.9482 19.6761 26.636 21.364C28.3239 23.0518 30.6131 24 33 24H45C45.5923 23.997 46.1704 23.8188 46.6616 23.4878C47.1527 23.1568 47.5349 22.6879 47.76 22.14ZM33 18C32.2043 18 31.4413 17.6839 30.8787 17.1213C30.3161 16.5587 30 15.7956 30 15V10.23L37.77 18H33ZM54 30H39C38.2043 30 37.4413 30.3161 36.8787 30.8787C36.3161 31.4413 36 32.2043 36 33V57C36.0014 57.5427 36.1501 58.0749 36.4301 58.5398C36.7101 59.0047 37.111 59.3849 37.59 59.64C38.0591 59.8809 38.5834 59.9938 39.1101 59.9675C39.6368 59.9412 40.1473 59.7765 40.59 59.49L46.5 55.59L52.5 59.49C52.9482 59.7492 53.4558 59.888 53.9735 59.8929C54.4912 59.8978 55.0014 59.7686 55.4544 59.518C55.9074 59.2673 56.2878 58.9037 56.5586 58.4624C56.8295 58.0212 56.9815 57.5174 57 57V33C57 32.2043 56.6839 31.4413 56.1213 30.8787C55.5587 30.3161 54.7957 30 54 30ZM51 51.36L48.18 49.47C47.6839 49.1347 47.0988 48.9555 46.5 48.9555C45.9012 48.9555 45.3161 49.1347 44.82 49.47L42 51.36V36H51V51.36Z" fill="#1CBBE2"/>
</svg>
