<svg width="44" height="63" viewBox="0 0 44 63" fill="none" xmlns="http://www.w3.org/2000/svg">
<path d="M36.0006 5.2152C33.4712 3.04923 30.5092 1.49851 27.3309 0.67616C24.1525 -0.146186 20.8379 -0.219405 17.6289 0.461846C13.3561 1.36047 9.43591 3.56033 6.3658 6.78232C3.29568 10.0043 1.214 14.1032 0.384874 18.559C-0.220602 21.8998 -0.110577 25.3387 0.7071 28.6302C1.52478 31.9217 3.02996 34.9848 5.1153 37.601C7.05062 39.8748 8.15992 42.7825 8.25059 45.8192V54.4096C8.25059 56.6879 9.11986 58.8729 10.6672 60.4839C12.2145 62.0949 14.3131 63 16.5013 63H27.5023C29.6906 63 31.7892 62.0949 33.3365 60.4839C34.8838 58.8729 35.7531 56.6879 35.7531 54.4096V46.3633C35.8454 43.0106 37.0284 39.79 39.1084 37.2288C42.7528 32.5349 44.4707 26.5332 43.8888 20.528C43.3069 14.5227 40.4721 8.99924 36.0006 5.15793V5.2152ZM30.2526 54.4096C30.2526 55.169 29.9628 55.8974 29.4471 56.4344C28.9313 56.9714 28.2318 57.2731 27.5023 57.2731H16.5013C15.7719 57.2731 15.0724 56.9714 14.5566 56.4344C14.0408 55.8974 13.7511 55.169 13.7511 54.4096V51.5461H30.2526V54.4096ZM34.8455 33.6781C32.0801 37.0931 30.4667 41.358 30.2526 45.8192H24.7521V37.2288C24.7521 36.4693 24.4623 35.741 23.9466 35.204C23.4308 34.667 22.7313 34.3653 22.0018 34.3653C21.2724 34.3653 20.5729 34.667 20.0571 35.204C19.5413 35.741 19.2516 36.4693 19.2516 37.2288V45.8192H13.7511C13.6785 41.4326 12.12 37.2138 9.35069 33.9072C7.52354 31.6278 6.29486 28.8944 5.78447 25.9735C5.27408 23.0525 5.49938 20.0437 6.43842 17.2404C7.37745 14.4371 8.99817 11.935 11.1425 9.97809C13.2869 8.02114 15.8817 6.67615 18.674 6.07424C21.0738 5.5598 23.5534 5.60819 25.933 6.2159C28.3125 6.8236 30.5322 7.97537 32.4309 9.58759C34.3296 11.1998 35.8597 13.232 36.9101 15.5366C37.9604 17.8413 38.5047 20.3605 38.5033 22.9114C38.5237 26.834 37.2302 30.6413 34.8455 33.6781Z" fill="#1CBBE2"/>
</svg>
