<?xml version="1.0" encoding="utf-8"?>
<!-- Generator: Adobe Illustrator 24.0.0, SVG Export Plug-In . SVG Version: 6.00 Build 0)  -->
<svg version="1.1" xmlns="http://www.w3.org/2000/svg" xmlns:xlink="http://www.w3.org/1999/xlink" x="0px" y="0px"
	 viewBox="0 0 1871 923.4" style="enable-background:new 0 0 1871 923.4;" xml:space="preserve">
<style type="text/css">
	.st0{fill:url(#fondo_1_);}
	
		.st1{fill:none;stroke:#000627;stroke-width:1.0222;stroke-linecap:round;stroke-linejoin:round;stroke-miterlimit:10;stroke-dasharray:10.2225,10.2225;}
	.st2{fill:none;stroke:#04FFFF;stroke-width:0.75;stroke-linecap:round;stroke-linejoin:round;}
	.st3{fill:none;stroke:#04FFFF;stroke-width:0.75;stroke-linecap:round;stroke-linejoin:round;stroke-dasharray:4.9724,4.9724;}
	.st4{fill:none;stroke:#04FFFF;stroke-width:0.75;stroke-linecap:round;stroke-linejoin:round;stroke-dasharray:5.0023,5.0023;}
	.st5{fill:none;stroke:#04FFFF;stroke-width:0.75;stroke-linecap:round;stroke-linejoin:round;stroke-dasharray:4.9539,4.9539;}
	.st6{fill:none;stroke:#04FFFF;stroke-width:0.75;stroke-linecap:round;stroke-linejoin:round;stroke-dasharray:4.9309,4.9309;}
	.st7{fill:none;stroke:#04FFFF;stroke-width:0.75;stroke-linecap:round;stroke-linejoin:round;stroke-dasharray:4.9776,4.9776;}
	.st8{fill:none;stroke:#04FFFF;stroke-width:0.75;stroke-linecap:round;stroke-linejoin:round;stroke-dasharray:5.1419,5.1419;}
	.st9{fill:none;stroke:#04FFFF;stroke-width:0.75;stroke-linecap:round;stroke-linejoin:round;stroke-dasharray:4.9383,4.9383;}
	.st10{fill:none;stroke:#04FFFF;stroke-width:0.75;stroke-linecap:round;stroke-linejoin:round;stroke-dasharray:5.0132,5.0132;}
	.st11{fill:none;stroke:#04FFFF;stroke-width:0.75;stroke-linecap:round;stroke-linejoin:round;stroke-dasharray:5.0987,5.0987;}
	.st12{fill:none;stroke:#04FFFF;stroke-width:0.75;stroke-linecap:round;stroke-linejoin:round;stroke-dasharray:4.9824,4.9824;}
	.st13{fill:none;stroke:#04AAFF;stroke-width:2;stroke-linecap:round;stroke-linejoin:round;stroke-miterlimit:10;}
	.st14{fill:none;stroke:#04C8FF;stroke-linecap:round;stroke-linejoin:round;stroke-miterlimit:10;}
	.st15{fill:none;stroke:#04C8FF;stroke-width:4;stroke-linecap:round;stroke-linejoin:round;stroke-miterlimit:10;}
	.st16{fill:none;stroke:#0496FF;stroke-width:20;stroke-linecap:round;stroke-linejoin:round;stroke-miterlimit:10;}
	.st17{fill:none;stroke:#04C8FF;stroke-width:15;stroke-linecap:round;stroke-linejoin:round;stroke-miterlimit:10;}
	.st18{fill:none;stroke:#0496FF;stroke-width:8;stroke-linecap:round;stroke-linejoin:round;stroke-miterlimit:10;}
	.st19{fill:none;stroke:#04C8FF;stroke-width:0.75;stroke-linecap:round;stroke-linejoin:round;stroke-miterlimit:10;}
</style>
<g id="fondo">
	<radialGradient id="fondo_1_" cx="935.5086" cy="461.6823" r="1158.2894" gradientUnits="userSpaceOnUse">
		<stop  offset="0" style="stop-color:#002A6F"/>
		<stop  offset="1" style="stop-color:#000627"/>
	</radialGradient>
	<rect id="fondo_00000002380473796177684490000018446390195705167018_" class="st0" width="1871" height="923.4"/>
</g>
<g id="Mare">
	<path id="mare" class="st1" d="M502.8,535.3c128.6-8.3,264.4,2.2,401.7,34c273.1,63.3,503.5,199.6,659.8,371.6 M132.3,619.3
		c-57,23.8-110.3,52.1-159,84.6 M1347.2,936c-130.2-98.2-289.4-174-468.1-215.4c-119.6-27.7-238.2-37.8-351.5-32.2 M330.5,715.1
		c-135.6,30.5-258.5,85-360,159.5 M1004.2,934.4c-54.8-25.3-113.1-46.2-174.4-62c-232.5-60-463-35.1-645.3,53.5"/>
</g>
<g id="verde">
	<g id="verde_00000016076755267648432480000011582592092661292479_">
		<g>
			<g>
				<path class="st2" d="M167.7-2.6c0,0.9-0.2,1.7-0.5,2.5"/>
				<path class="st3" d="M164.7,4.1c-3.1,3.6-7.7,6.7-9.9,11c-3.4,6.7-0.4,15.1-2.8,22.2c-3.6,10.6-18.2,15.7-19.1,26.8
					c-0.4,4.6,1.8,9.3,0.2,13.6c-1.4,3.6-5.1,5.9-6.3,9.5c-1.2,3.5,0.1,7.2,1,10.8c1.9,6.9,2.7,14.6-0.3,21.1
					c-3,6.5-10.5,11.4-17.4,9.3c-4.3-1.3-7.5-4.9-11.3-7.4s-9.5-3.5-12.4-0.1c-4.2,4.9,1.5,12,2.2,18.5c0.9,8.7-7.4,15.2-14.8,19.9
					c-5.4,3.4-10.8,6.8-16.2,10.2c-2.4,1.5-4.9,3.1-7.8,3.5c-4.1,0.5-8.1-1.5-12.2-1.7c-8.6-0.3-17.5,7.4-25,3.1
					c-3.2-1.9-4.9-5.4-7.3-8.3c-1.3-1.5-3.1-2.8-5-3.4"/>
			</g>
			<g>
				<path class="st4" d="M447.9,3.3c-3,8.9-8.5,17.1-12.9,25.6c-5.5,10.7-9.1,24-3.4,34.6c8.4,15.5,32.1,17.1,40.7,32.5
					c4.1,7.3,3.8,16.2,5.2,24.5s5.6,17.4,13.8,19.3c3.3,0.8,7,0.3,9.8,2.3c4.8,3.4,3,10.9,0.7,16.3c-4.1,9.7-8.2,19.4-12.3,29
					c-2.2,5.1-4.4,10.3-7.9,14.6c-5.6,6.8-14,10.6-22,14.2c-14.3,6.4-28.6,12.8-42.9,19.2c-8.9,4-18.4,8.6-22.8,17.3
					c-4.7,9.2-2,20.9,4,29.3c6,8.5,14.8,14.4,23.4,20.2c19.7,13.2,39.3,26.5,59,39.7c4.3,2.9,8.7,5.9,12.1,9.9
					c3.8,4.6,6,10.3,8.9,15.6c8.9,16.2,24.3,27.7,39.3,38.6c5.2,3.8,11.1,7.8,17.6,7.1c9.2-1.1,14.1-11.1,19.9-18.4
					c9.7-12.2,24.7-18.5,38.1-26.4c13.4-7.9,26.7-19.4,28.3-34.9c0.5-5.5-0.5-11.2,0.8-16.5c2.4-9.6,11.5-15.9,16.7-24.3
					c6.4-10.2,6.4-24.1,0.2-34.4c-4.5-7.4-12.3-14.8-9.6-23.1c0.9-2.8,3-5.2,5.2-7.2c20.4-18.7,51.7-18.4,78.8-12.8
					c17.7,3.6,34.9,8.9,52.1,14.3c6.4,2,12.9,4,19.3,6c13.5,4.2,27.4,8.4,41.5,8.1c7.1-0.2,14.2-1.5,21.3-1.4
					c5.5,0.1,10.9,1,16.4,0.9c23.9-0.5,42.6-19.6,63.8-30.8c24.5-12.9,54.5-15.2,80.7-6c5.1,1.8,10.2,4,15.7,4.2
					c15.6,0.4,26.1-15.8,30.8-30.7c6.6-21,8.2-43.6,4.7-65.3"/>
				<path class="st2" d="M1082.1,111.9c-0.2-0.8-0.3-1.6-0.5-2.5c-0.8,0.1-1.7,0.2-2.5,0.1"/>
				<path class="st5" d="M1074.3,108.6c-6.8-2.6-12-9.9-13.1-17.4c-1.5-10,2.3-20,6-29.5c1-2.5,2.2-5.3,4.5-6.6
					c2.6-1.4,5.7-0.7,8.5-0.3c18.4,2.6,35.8-8.1,51.3-18.3c3.5-2.3,7.2-4.8,8.9-8.7c3.6-8.3-3.5-19.4-1.3-27.2"/>
			</g>
			<g>
				<path class="st2" d="M480.1,341.9c0.7-0.4,1.5-0.8,2.2-1.1"/>
				<path class="st6" d="M487.1,339.5c15-2.1,36.4,9.8,49.8,3.8c5.9-2.6,9.7-8.5,13.1-14c4.9-8,9.9-15.9,14.8-23.9
					c0.8-1.4,1.7-2.9,1.6-4.4c-0.1-1.4-1-2.7-1.9-3.8c-4-5.1-8-10.3-12.1-15.4c-1-1.3-2.1-2.7-3.7-3.3c-1.8-0.8-3.8-0.4-5.8,0
					c-10.1,2-20.2,4.1-29.6,8.3c-6.1,2.8-11.8,6.4-18.3,7.9c-6.5,1.5-14.3,0.2-18.1-5.2c-3.4-4.9-2.7-11.7,0.2-16.9
					c2.9-5.2,7.7-9,12.3-12.7c6.5-5.1,13.8-12.8,10.4-20.3c-2.5-5.6-9.5-7.3-15.5-8.7c-4.6-1.1-6.9-7.5-8.2-13.1"/>
				<path class="st2" d="M475.9,215.3c-0.1-0.9-0.3-1.7-0.4-2.5"/>
			</g>
			<g>
				<path class="st2" d="M852,217.1c0.7-0.4,1.4-0.9,2.1-1.3c-0.4-0.7-0.9-1.4-1.3-2.1"/>
				<path class="st7" d="M850.5,209.3c-2.7-5.1-4.7-10.6-4.5-16.3c0.2-3.5,1.2-6.9,1.4-10.4c1.2-21.7-28.1-36.1-26.6-57.8
					c0.2-3.4,1.2-6.7,0.9-10.1c-0.3-3.2-1.7-6.1-3.1-8.9c-5-10.1-10-20.2-14.9-30.3c-2.1-4.2-4.3-8.6-8.3-11.2
					c-5.7-3.8-13.2-2.7-19.8-0.9c-17.7,4.9-32.9,11.8-51.7,11.4c-11.2-0.2-24.1-1.5-34.2,4.5c-8.7,5.1-15.4,17.9-13.1,28.2
					c1.8,8.1,7.8,8,12.5,13.8c5.3,6.7,2.4,15,6,22.3c3.9,7.6,14.2,9.5,22.5,7.7c8.4-1.8,16.1-6.1,24.6-7.1c2.9-0.4,6.2-0.2,8.4,1.7
					c4.1,3.6,1.6,10.6-2.5,14.3c-4,3.7-9.4,6.3-11.8,11.2c-1.7,3.5-1.6,7.5-1.3,11.4c0.4,5.7,1.1,11.6,3.7,16.7
					c2.6,5.1,7.4,9.5,13.2,10c4.2,0.4,8.3-1.2,12.5-1.7c14.8-1.9,27.9,8.9,42.1,13.8c14.1,4.9,30.1,3.6,43.3-3.4"/>
			</g>
			<g>
				<path class="st8" d="M1586.9-9.3c-8.1,11.4-9.6,27.5-3,39.9c6.2,11.6,18.8,21.9,15.9,34.7c-2,8.7-10.8,14.7-12.3,23.4
					c-1.8,10.9,7.7,23.8,4.5,32.7"/>
				<path class="st2" d="M1590.8,123.6c-0.5,0.6-1,1.3-1.7,1.8c0.8,0.2,1.6,0.3,2.4,0.5"/>
				<path class="st9" d="M1596.4,127.3c16.6,5.1,31.1,16.8,39.5,32c2.9,5.2,6.2,11.7,12.1,12.1c2.6,0.2,5.2-0.9,7.6-2
					c16.9-7.6,35.1-16.5,43.4-33.1c2.2-4.4,3.8-9.5,7.8-12.3c7.7-5.5,21.5-0.8,25.9-9.3c1.9-3.7,0.7-8.2,1.1-12.3
					c1.4-17.4,25.6-21.9,35.3-36.4c2-3,3.6-6.7,6.9-8.3c3.9-1.8,8.5,0.2,12.7-0.5c6.3-0.9,10.2-7.2,13.3-12.9
					c7.8-14.4,15.5-28.8,23.3-43.3"/>
			</g>
			<g>
				<path class="st2" d="M916.5,484.5c0.7-0.5,1.4-0.9,2.1-1.3"/>
				<path class="st10" d="M923.3,481.3c15.5-5.2,40.5-3.4,48.7-15.1c3-4.3,3.3-10.2,6.6-14.3c2.8-3.6,7.3-5.2,11.1-7.7
					c13.8-9,17-27.4,25.3-41.6c17.1-29.2,54.6-39.1,78.8-62.8c8.8-8.6,16.2-20.9,12.9-32.8c-1.6-5.8-5.7-10.9-11.1-13.7
					c-5.7-2.9-12.3-3.2-18.8-3.4c-18.6-0.6-38.4-1-54.1,8.9c-8.8,5.5-15.9,13.9-25.7,17.1c-9.2,3-19.5,1-28.6,4.4
					c-4.5,1.7-8.5,4.6-13.2,5.8c-7.4,1.8-15.1-1-22.8-1.1c-25.7-0.4-41.9,28.5-66.1,36.9c-17.1,6-36,1.1-53.4-3.9
					c-7.1-2-14.5-4.3-19.9-9.4c-4.4-4.3-7.1-10.3-12.2-13.6c-6.5-4.2-14.9-2.9-22.5-1.5c-31.2,5.8-63.5,12.1-89.4,30.4
					c-7.8,5.5-15,12.1-23.4,16.6c-14.4,7.8-33,10-42.5,23.4c-4.5,6.4-6.2,14.5-10.7,20.9c-4.2,5.9-10.5,9.9-15.8,14.8
					c-4,3.8-7.6,8.8-8.4,14.1"/>
				<path class="st2" d="M568,456.1c0,0.8,0.1,1.7,0.3,2.5"/>
			</g>
			<g>
				<path class="st2" d="M-2.3,495.8c0.7,0.4,1.4,0.9,2.2,1.3"/>
				<path class="st11" d="M4.4,499.3c21.1,9.2,47.9,4.4,63.9-12.4c4.3-4.5,8.6-10.1,14.8-10.5c3.3-0.2,6.4,1.1,9.5,2
					c20.8,5.8,41.8-7.2,58.9-20.5c15.7-12.2,32.7-26,52.1-27.1"/>
				<path class="st2" d="M206.2,430.7c0.8,0,1.7,0,2.5,0.1c0,0.9,0.1,1.7,0.3,2.5"/>
				<path class="st12" d="M211.5,437.4c1.5,1.5,3.4,2.8,5.4,3.6c4.3,1.8,9.1,2.3,13.3,4.3c3.6,1.7,6.5,4.4,9.6,6.8
					c15.3,11.8,35.6,16.7,54.5,13.3c7-1.3,13.9-3.6,21-3.6c7.1,0,14.8,3,17.8,9.5c2.6,5.7,0.9,12.5,3.1,18.3c1.5,4.1,4.7,7.2,7,10.9
					c10.9,18.2-4.6,41.8,0.2,62.4c1.1,4.5,3.1,8.8,3.8,13.4c0.8,5.2-0.3,10.5-0.9,15.8c-1.9,17,0.9,34.3,6.3,50.4
					c2.7,7.9,5.9,15.5,10.1,22.7c3.2,5.6,7.1,11,12.6,14.3c5.5,3.3,13,4,18.2,0.2c10.7-7.8,4.4-26.3,12.6-36.8
					c3.1-4,8.1-6.6,9.8-11.3c1.7-4.7-0.3-10.2,1.8-14.7c1.1-2.4,3.3-4.1,5.3-5.8c19-16.2,29.4-42.1,27-67
					c-0.8-8.2-2.5-17.7,3.2-23.7c2.8-2.9,7-4.4,9.2-7.8c2.2-3.4,2.1-8.2,5.4-10.6c5-3.5,11.1,2.2,17.1,3.5c4.6,1,9.4-0.8,14.1-1.3
					c3-0.3,6.4,0.4,8.7,2.1"/>
				<path class="st2" d="M509.6,508.4c0.4,0.7,0.8,1.5,0.9,2.3"/>
			</g>
		</g>
	</g>
</g>
<g id="strade-principali">
	<path id="strade-principali_00000135665541638499251940000016577935910763887493_" class="st13" d="M1284.9-16.2l-23.1,36.7
		l-6.5,23.7l-10.1,18.4v12.4l-14.2,33.2v20.1l-19,39.7l-13,42.1l-21.3,31.4l-23.7,21.3l-25.5,27.9l-17.8,12.4l-16,2.4l-34.4,10.7
		l-14.8,9.5l-24.3,7.7l-25.5,26.7l-19,8.9l-31.4-9.5l-14.2,4.1l-24.9,1.2l-53.3,15.4l-36.1-4.7l-20.7-11.9l-11.3,2.4l-39.7,11.3
		l-32,6.5l-10.1,4.1L692.4,400h-14.2l-16,6.3l-8.9,10.1l-17.2,7.1l-46.2,38.2l-21.9-3.2l-28.4,5.9h-20.7l-14.2-7.1H482l-29.6-7.1
		l-7.1-9.5l-21.3-13.6L396.6,400l-8.9-13.2l-9.5-11.3v-8.9l-10.1-13l-11.3-14.8l-7.7-16.6l-3.6-13.6l-17.8-29.6v-16l-5.3-11.9
		l-8.9-7.1v-8.3l-4.7-4.1l-29,4.1l-14.2-4.1l-33.8-4.1l-18.2-4.7l-7.9-12.4l-11.9-7.7l-10.7-15.4l-9.5-15.4l-14.2-11.6l-8-20.4
		l-17.8,0.9l-9.8,5.3l-3.6-16.9v-24.9l-8-16.9l-20.4,0.9l-24-16.9l-35.6-24l-6.2-17.8L0,12.5 M1886.7,649h-38.7l-25.3-6.7l-44-14.7
		l-24-29.3l-26.5-17.2l-35.6-28.4l-27.9-4.1l-27.3-16l-40.9-17.8l-48-7.1l-32.6,4.1l-24.3-0.6l-24.3,11.9l-15.4,9.5l-20.7-5.3h-20.1
		l-14.8-16l-34.4-18.4l-20.7-13l-13-18.1l-14.8-12.7h-11.3l-9.5-8.9l-20.7-5.3h-20.7l-25.5-3l-17.2-13.6h-12.4h-20.7h-20.7
		l-24.3-7.9h-17.2h-32.6h-23.7l-18.4-10.3l-17.2-15l-29-13.6l3.6-11.3 M1880.1,224.1l-30.7,31.6l-29.3,29.3h-32l-37.3,26.7l6.7,20
		l-8,22.7l13.3,22.7l-1.3,23l8,33l-13.3,31.4l-24,40.1l-20,24.4l-6.9,33.8 M1452.1,532.5l-25.3,4.9l18.7,12.4l9.3,15.6l21.3,13.3
		l24.9,28l26.2,28.4l20,17.8v9.8l38.7,40.9l16.4,15.6l15.1,17.3l11.1,20l17.3,12l16.4,17.3l29.8,23.4l8.9,15.7l11.1,23.1l23.5,32.9
		l25.8,24.9l16.9,17.5 M-9.3,515.9l30.2,8.3h27.9l15.4,13l36.7,4.7l12.4,4.7l7.1,13l4.1,10.7l16,10.1l19.6,13.6l20.7,14.8l4.7,8.9
		l16.6,3.6l23.7-6.5l23.7-11.3l16.6,10.1l4.7,10.7l10.7,13.6l18.4,10.1l16.6,11.9h15.4h10.7l7.7,14.8l10.7,21.3l3,14.8l15.4,3
		l19-15.4l17.2-17.2l8.3-11.3l17.2-3.2l11.9-15.2l6.5-17.2l-16-11.3l1.2-16.6l10.1-26.1l4.7-15.4v-13l19-22.5l8.9-17.8l18.4-22.5
		l27.9-17.2l24.9-4.1l31.4-6.3l36.7-18.6l28.4-21.3l21.3-8.3l21.9-6.5l30.2-6.9h69.3l26.1,3.9l36.1-8.3h21.3l23.1-6.5l29.2-2.4
		l10.5,2.4l22.5-5.3l10.1-14.8 M992.2,371.4l-25.5,12.4l25.5,13l24.3,13.5l29,4.9l20.7,10.7l46.2,10.7l90.1,27.9l5.9,7.1l36.7,5.9
		l17.2,8.9l35,5.3l27.3,10.1L1359,513l21.3,3.6l17.2,10.7h13.6l15.6,10.2"/>
</g>
<g id="strade-secondarie">
	<path id="strade-secondarie_00000013871158502334760470000003790189931721203074_" class="st14" d="M335-3.2l-1.8,14.8l5.3,13
		L322,49l-5.9,26.1l5.9,18.4l-18.4,23.1l-0.6,24.9l4.1,26.1l5.9,18.4l-3,16l-7.7,11.3l-8.3,16l-11,6.1l-6.2,11.1l-17.2,14.2
		l-10.1,26.1v12.4l-13.6,11.3l-16.6-2.4l-5.7-8.9l-8.5-3l-5.9,10.7v12.4l14.4,19l5.7,10.1L192.8,369l-16,10.7l-6.5,11.9l-15.4,11.3
		l-15.4,7.6l-10.7-7l-10.1,7l-8.9-4l-5.9-6.3l-10.1,4.5l-13-4.5l-1.8,5.7L64.8,400H53.5l-13.6,5.1h-3.6H22.7v13.6l-10.1,10.1
		l-5.3-3.6H0 M452.4,450.2l-4.2,9.5l-15.9,4.7l-16.6,12.4v9.5l-5.3,8.9l-13,18.4v13v7.1l-5.3,7.7l-1.8,14.8 M502.8,492.8l-9-7.1
		l-5.3-11.9l-10.7-9.5l-19-2.7l-10.7-2 M493.8,485.7l5.3-9.5l-2.7-7.7l2.7-11.3 M241.6,305.7l1.6,14.1l-3.6,7.7l3,11.9l10.1,10.1
		V369l8.9,13.6l5.9,17.4v15.2l5.3,18.4v21.3l5.3,16.6l7.1,8.9l11.3,5.3l3.6,7.1l-1.2,4.8l3.6,5.6l7.1,9.8l2.7,4.1l-10.4,10.1
		l-3.6-4.7l-7.7,8.3v17.2l3.6,8.3l10.1,7.1h9.6l4.6,5.9l3,5.9l12.4,5.9 M205.2,296.1h-9.2h-20.4l-11.6-3.1l-4.9-11.1l-8.9-13.8v-9.3
		l-8.4-2.7l-11.1,4.4l-15.6,2.2l-24,6.2l-11.6,4.4l-14.7-12.7l-14.7-0.2c0,0-7.1,0.4-8.9,0c-1.8-0.4-14.2-4.4-14.2-4.4H13.8L0,247.7
		 M56.5,260.6l-5.8-9.9l8.9-13.3h8l8.9-4l3.1-9.3l9.8-7.6l7.1,3.6l24.9-0.4l9.3,4.4l8,4l7.6,4.4l6.7-8.4l2.2-11.3v-11.4l9.8-9.8
		l-3.6-12.4l-3.6-8.9l7.1-5.9 M239.6,199.2h3.1l-3.1,8l16.9,5.3l9.8,2.7l12,3.1l3.6,3.6l1.3,13.3l3.6,7.1c0,0,10.2,4,11.6,5.3
		s6.2,7.6,6.2,7.6v9.3l9.8,7.3l6.2-2.9l2.2-8.4h4.2 M308.5,171.6h6.7l6.2-5.3v-10.2l5.5-11.1l4.3-9.3l-2.2-8.9l-4.9-5.8l-10.7,4.4
		l-10.4,16 M202.3,469l-4.9,2.5l7.9,12.6l8.5,8.7l-1.7,10.4l13.8,8.4l16.9,9.8v4l10.2,6.2l7.6,5.3l6.7,7.6l8.9,6.7h4.9l12.4,3.3
		 M338.6,629.4l-2.5-7.6l-2.2-6.2l-7.1-7.7l-9.3-7l-13.8-4l-8.3-6 M385.8,559.8l-1.9,5.6l3.9,5.6 M399.3,559.8v9.8l3.1,8.3h9l9.8-3
		l3.6-1.8 M435.6,585.2l-5.7,2.7l-6.2,7.1l-6.5,7.1l2.5,9.1 M369.2,711.9l7,5.5l4.1,4.1l2.1,4.7l3.4,2.4l1.9-8.4l9.2-6.4l5.5-8.3
		l6.1-4.1h11.3l11,4.1l9.2,0.3l8.2,4.1l10.4,2.4l5.3,2.7h10.4l1.5-4.4l6.2-9.2l6.2-5l-9.8-3.6l-6.2-5.3l-2.1-7.4l0.3-9.2l-2.7-4.1
		l-0.3-11.9l-3-10.7l2.7-10.7l-1.5-5.9l-8.3-5.3l-3-9.5l-2.1-4.9l-1.8-7l-2.4-3.4l-11.8-10.5l-4.1-9.5l-8.9-5.3l-17.2-1.2l-3-8.9
		l-13-5.9l-7.1,5.9L366.4,574l-17.2,7.7l-15.4-0.6L319,591h-23.7l-11.3-4.5l-11.3-0.6l-13.6-7.1l-21.9-4.7l-10.7,5.9l-12.8,4.1
		l-15,11.3L179.5,608 M442.9,664.6l-1.5-6.4l-8.3-4.4l-4.4-5.3l3.6-5.3l3.6-1.8l-7.1-3.3c0,0,6.2-3,7.1-3c0.9,0,2.7-4.1,2.7-4.1
		l2.1-3l3-4.7l-4.4-0.9l-5.3-1.5l-8.3-2.4l-4.1-6.2l-7.1-4.3l-8.6-3.1v-8.9l-5-7.4l-4.4-9.2l-8.3-8.3l-3.9,1.2l-0.3,7.4l0.9,8
		l-2.4,10.7l-8.9,11.9l-11.9,7.4l1.8,14.5l5.6,6.8l-3.6,9.5l14.2,11.6l10.7,4.7l12.7-2.7h5l4.7,4.8l8.6,6.8l11.6,5l4.7,5
		c0,0,3,5,3.3,5.9c0.3,0.9,4.7,5,4.7,5l6.8,4.1l6.5,3l1.8,5.3l3.3,8 M456.5,574.9c0,0-3.2-11.8-4.1-12.4s-4.2-6.2-4.2-6.2l-5.3-8.6
		l-7.3-4.7l-9.2-8.9l-5.1-11l-9.2,1.2l-7.7,3.9l-7.1,1.5 M604.5,434.3l-9.3-3.1l-6.2-2.7l-2.9-7.6l-10.9,4.9l2.2,8.9l6.2,5.3
		l9.8,4.4h3.6l-7.1,17.1 M708.1,369l2.9-8.9l10-10.7l10.2-11.1l2.2-8.4l-5.3-6.7v-9.8l-7.6-23.1l-4-9.3l-15.1,2.7l-6.2-6.2l-6.7,8.4
		l3.1,10.2l7.1,4.9v17.8l4.7,7.6l-4.7,9.8v7.6v9.8l6.6,9.3L708.1,369v8l-2.7,10 M688.5,285.9h-5.3l-7.6,4.9v5.8v8.4l-6.2,6.2
		l-9.8,12.9l1.3,8.1l4,6.1h9.1l6.9,5.3l7.6,3.6l10.2,1.8 M735.7,379.2l-2.3-12l8-10.2l-1.8-8l-1.8-6.2l7.6-4.4V325l-2.7-14.2
		l2.7-12.9l-5.3-12l-2.2-12.9l-6.7,4.4l-14.7,3.6 M659.6,137.9l-3.6,11.1l11.1,10.2h-7.6v4l-4.9,7.6l0.4,13.3l-17.3,5.3l-10.7,4.9
		l6.7,6.7l13.3-1.3l14.7-5.3l7.1,8.9l6.2,6.2l-9.3,2.7l6.2,8.9l7.1,6.7l15.1-9.8l4.4-5.8h9.8l2.4,12v8.9l12.7,9.8l7.3,5.8l6.9,4.4
		l-4.4,8.4l-9.8,8l7.3,3.6h6.9h7.6l5.3,4.4l5.3-16l12-4.4l9.8,5.3l21.3,4.4l16.4-3.6l22.7-4.9l6.2,3.6l10.7,3.1l12.9-2.7l15.6-3.6
		l23.1,1.3l27-5.3l5.9,4.9l5.8,10.7l14.2,9.8h17.2l3.3,5.8h9.8l10.2,2.2l-2.2,5.3l-16,8.4l8,4.9l16.9-8l6.7,2.2l11.1,0.4l12-3.1
		l6.2,3.1l-5.8,9.3l10.1,14 M766,371.4l2.1-4.1l5.8-11.1l1.8-5.3h17.3l8.9-6.7h12.9l13.3-4l13.3-15.3l2.7-11.8c0,0-2.2-10.2-4.4-12
		s0-9.8,0-9.8V281l-6.2-3.6l-5.3-4.4l-9.3-10.4l-6-3.3l6-6.4l-8.9-4.2l-5.3,6.7l-13.3-1.8l-10.7,3.6h-12.4 M933.7,362.9l-2.1-12.1
		v-8.9L914.3,329c0,0-0.9-19.1,1.3-20.9c2.2-1.8,0-6.7,0-6.7l-10.7-7.6l-5.8-5.8l-21.8,8l-10.2-4.9l-27.6-3.1l2.2,3.1l5.8,6.2
		l8.4,4.9l1.8,7.6l7.1,14.8l2.2,21.1l-4.4,8.9l-4,9.3l-7.1,7.3l-6.7,7.8l-9.8,5.8l1.9,6.2l4,8.8 M927.2,363.8l-1.8-10l-7.6-8.4
		l-4.4-6.7l-1.8-6.5c0,0-10.2-7.2-12.4-7.4c-2.2-0.2-7.6-7.4-7.6-7.4l-2.7-7.5h-23.1l-9.8-7.6 M785.8,400l-1.3-13l1.8-4.2l-4.4-8.4
		l-5.7-5.3 M895.2,391.8l-7.6-12.6l-7.5-6.8l-1.9-6.5l-7.1-12l-5.6-4.9 M911.2,364.6v4.4l-2.2,10.2l4.5,9.2 M953.1,361.8l-5.5-4.8
		c0,0,0.4-13.3,0-14.7c-0.4-1.3,0-6.7,0-6.7l-7.6-7.1h-6.3l-10.5,7.1 M947.6,335.6l10.7-2.5l15.1-0.9h6.7l12.1-3.7l11.4,3.5l8.4-7.3
		l12-7.4h12h5.7 M925.4,387.4l8.3,6.4l1.9,9.8l-1.9,10.2l-3.2,8l3.2,9.3l4.4,8l9.5,8.9l5.5,8.9l3,4.7l5.8-7.3l4.9-13.4l3.6-11.6
		l15.6-4.9l6.4-12l7.3-11.7 M1106.3,435.1l3.8-4.5v-4.1l1.8-4.6h-8c0,0-10.1-2.3-11.2-2.6c-1.1-0.3-7.5-2.7-7.5-2.7l-8.9,1.8
		l-6.5-0.3l-11.3-3h-13l3.9,11.6c0,0-2.1,6.7-2.4,8c-0.3,1.3-1.5,12.9-1.5,12.9l13,11.7 M1058.6,421.9l-1.5,6.6c0,0-2.1,8.9-1.5,8.7
		c0.6-0.1,1.8,6.1,3,7s4.1-2.4,4.1-2.4l3.6-5.9l3.6-5l5.1-3 M1092.7,432c0,0-1.6,4.6-3.9,5.3c-2.4,0.7-3.9,7.1-3.9,7.1l-3,6.4l0,3.6
		 M1135.1,443.2l3.8-9.1v-4.1l-11.9-5.4l-4.8,9.7v5.3 M1111.9,421.9l15.1,2.6 M1341.2,479.8l-13.6-5.3l-16-5.9h-12.4l-17.2-9.2
		l-23.1-5l-17.2-11.2h-21.3h-13.6l-12.7-5.9l-11-7.3h-13l-7.1-1.3l-8.6-1.3H1143l-4.1,2.6 M1344.4,628l-13.3-12.8l-15.1-8.4
		l-15.1-19.1l-25.8-17.3l-10.2-7.6l-13.3-12l-16.9-13.3l-12.4-2.7l-16.4-16l-16.4-18.7l-8.9-3.6l-9.3-8.9l-20-12l-16.9-5.8
		l-14.8-10.5l-7.6-5.8l-16.3-3l-16.9-3.8h-3.8l-13.9,2.2l-7.9,5.4 M1220.4,443.2l-5.9,3.6l-6.5,12.6l-14.1,2.3l2.9,5.1v8.4l4.7,8.9
		l8.4,12.9l9.8,7.6l5.8,7.6l9.8,13.3l11.6,2.7l20,13.3l14.2,12.9l7.1,5.3l16.4,14.7l14.7,14.7l15.1,11.1l16.4,14.6 M1161.8,451.8
		l-4,5.2l-6.7,18.7 M1175.6,456.1l4-18.8l-4-7.3 M1185.5,498.5l15.9-14.4 M1177.6,493.9l2-9.8l5.9-4.3l4.1-10.1v-5.3l3.9-10
		l0.5-17.1 M1234.7,537.4l15.9-8.9l13.6-4.9l13.6-10.1l7.1-9v-10.7v-4.1l4.1-13.3l4.5-10.8 M1242,528.5l12.3-10.5v-8l4-5.5
		l10.8-17.2 M1269.1,520.1l8.8,4.2l7.1,4.3l12.9,1.8l13.2,5.1l4.7,6l8.9,5.9h8.3l16.9-5.9l12.1,5.9h12.4 M1291.6,545.9l16.9,11
		l5.5,13.5l23.1,14.4l25.5,7.6 M1374.4,537.4h-17.2l-7.4-12.6l-20.4-4.8h-17.2l-17.5-2 M1334.6,477.2l-7.6,10.1l-2.4,14.4
		 M1353.2,487.3l-6.1,6.5l-3.6,14.1 M1275.2,457.9l-3.3,13.6l-3.8,4.1l-3.8,4.1l7.7,7.5 M1358.4,598.3l2.4,18.4l5.3,13.6l8.3,4.7
		l19,10.1l11.9,10.1l21.5,17.8l12.7,19.6l28.6,21.9l9.5,17.8l30.2,23.7l24.9,27.9l24.9,26.7c0,0,5.9,8.9,5.9,11.9
		s-5.3,11.3-3.6,12.4c1.8,1.2,17.2,17.8,17.2,17.8l19,12.4l11.9,16.6l26.7,17.8l5.9,15.4l13.2,12.4 M1721.8,780.7l23-16.5l5.9,2.7
		h11.3l10.1-6.8v-14.2l-6.5-1.2l-14.2-6.5h-8.9l-5.3,11.3l0.7,5.8L1721.8,780.7l-9,5.5l-23.9,20.7l-13.5,9.6l-32,16.6l-18.1,21.3
		l-29.3,10.7 M1737.1,749.4l-10.1-1.2h-19l-24,9.5h-16.3l-14,9.2l-11.5,5.6l-11.9,10.1l-19,10.7h-15.4l-21.3,6.7l-14.1,15.4
		 M1750.2,895.1l5.8-15.9l16.3-14.2l-0.3-27.3c0,0,0.6-20.1,0-22.3c-0.6-2.2-3-21-3-21l-10.1-19l-3-8.6 M1871,800l-24.3,18.2
		l-26.7,6.5l-17.8,13l-9.6,14.8l-20.3,12.4 M1859.8,927.2l-5.3-18.4l-5.3-7.7l-10.7-10.7l-16.8-8.3l-16.4-11.9l-12.6-17.8
		 M1772.1,760.1l12.4,6.8l17.8,11.6l19.4,15.4l32.6,18.6 M1867.5,709.1l-17.8,1.8h-12.4l-24.1,5.9l-25.7,14.2l-15.4,14.8
		 M1775.8,624.1l-10.9,8.6l-14.7,7.1l-13.1,5.3l-19,15.4l-7.1,11.9v8.9l11.9,11.9l4.1,10.7l5.9,14.2l10.5,9.9l-1,10.2 M1764.9,632.7
		l-1.2,16.3v11.6v17.2l4.7,17.8l9.8,7.1v13l9.2,15.4 M1684.1,738.2l-9.8,3.9l-25.4-3.9l-26.3,7.7 M1585.8,703.6l4.9-5.8l11.8-7.1
		l12.8-5.4l7.3-4.2l14.4-14.3l4.1-7.6l4.1-32.5l21.3-24.9l17.5-13l3.3-18.5l17.9-7.6 M1708.1,748.2l-24-10.1l-17.5-7.1l-17.7-16
		l-23.4-16.6l-13.3-17.3l-9.6-16.4l-14.1-5.9l-13-3.6l-9.5-13l-5.3-13l-7.2-15.3l-13.6-9.6l-8.3-11.3l-4.7-13l-12.4-9.6l-18.4,10.2
		l-18.4,17.2l-24.3,16.1l-19,12.9l-13,12.4l-16,16 M1500.9,606.8l10.4-8.4l13-8.3l11.9-7.1l5.9-12.6l9.5-14.7l21.9-23.1l15.5-18.9
		 M1536.2,582.9l20.4,6.5l13.9,10.7c0,0,12.1,8.9,15.3,10.1s20.3,13.9,20.3,13.9l9.5,12.1l7,16l6.1,11.3l14.2,9.5l20.7,8.1l30.2,4.3
		l17.2-4.1 M1645.2,626.8L1663,638l10.7,8.3l19.6,5.9l12,7l12.9,1.3 M1684.1,588.8l8.6,7.7c0,0,4.1,10.7,6.5,10.1s19,0,19,0
		l14.8,7.3l13-7.1l17.8,2.6 M1873.4,606.8h-22.5l-19-2.5l-15.4-5.9l-52.7,11 M1816.5,598.3l23.1-9.5l14.7-10.1l4.3-18.6l-20.7,2.6
		l-18.1-2.6l-14.5-9.9h-27l-28-3l-6.8-4.7h-34.1 M1858.6,560.2l-4.3-12.8l-13.5-9.9l-16.6-9.7l3-23.2l2.4-10.7l-19.6-6.5l-14.2-7.5
		l-11.8-7.2l-11.9,4.6l-28.6,8.3 M1757.2,461.7l14.9,3.9l11.9,7l30.4-7l24.7-12l24.9-26.2l22.8-3.3 M1547,562.7h7.6l13.6,3.6
		l20.8-11.3l15.9-7.7l11.9-14.8l5.8-6.5 M1656.3,613.9l-14.6-4.5l-11.9-5.5L1615,593l-19-6.5l-42.7-12.4l-11.3-3.7 M1769.4,433
		l31.6-5.6l14.3-12.7l24.3-10.7l13-14.2l14.8-11.3h12.6 M1751.1,349.6l12.7,3.4l6.8,7.1c0,0,18.9,13,22.1,13.6
		c3.1,0.6,52.3,0,52.3,0l22.5-7.1l10.1,4.7 M1770.6,360.1l13.4-15.4l17.1-13l-13.5-10.1l5.2-12.4l-8.7-7.1l-8.1-8.3 M1877.5,330.5
		l-10.1-3.6l-5.4-10.1l-7.1-5.9l-3-17.2l-3-6.5l-8.9-6.5l-13-2.9 M1452.1,532.5 M1596.6,514.8l17.2-20.9l31.7-21.3l29.6-10.9
		l21.3-34.3l8.7-17l5.8-16.9l-1.7-15l-14.6-18.4l-10.7-16l-12.4-11l-1.8-15.7l14.2-23.7l-9.8-15.9l-9.8-17.3l-8.2-19.6l-2.5-9.7
		l-31.3,14.1l-23.4,3.6l-3.2,22.2l-11.3,13.3l-63.4,19.6l-14.1,13.3l-9.9,18.2l-19.6,20.9l-38.4,8.1l-19.4,28.8l-14.8,16.9v11.6
		l-19,15.4l-11.9,11.1l13.6,16l3.6,22.9l3.6,6.5l-4.9,14.1 M1395.2,493.9l4.4-9.8l14.2-4.3l20.4,4.3l23.1-11.5l24.9-24.3l18.7-24.3
		l10.7-6.7l17.8-24l31.2-43.9l35.5-28.6l15.1-18.7l27.6-19.6l10.1-20.4l-3.6-27.1h-12.7h-23.1l-10.2,13.8l-14.4-24.9l4.2-24.9
		l-8.1-9.8l-10.7,8l-0.9-13.3l0.9-22.2l-9.7-14.2l-13.6-16.9l-10.8-16.9l-35.3-9.8v-8.9l6.3-11.6l-22.3-20.4l-16.9-15.1l-28.6-24
		l4.6-29.3 M1886.7,191.2l-19.2-3.6l-24.3,13.3l-24.6,3.6H1801l-30.4,11.6l-27.2-11.6l-25.3,3.6l-20.7,16l-15.7,13.3l-27.9-6.1
		 M1743.4,204.5l26-10.7l-13-12.4l-5.3-13.3v-9.8l12.7-20.4l20.2-8.9l17.1-24.9V81.9 M1727.6,153.9l7.1,17.8l8.7,13.3l7.7,2.7
		l18.3,6.2 M1730,179.9v13.9l5.9,6.2l2.4,4.4 M1618,235.2l-7.7-3.9l3.9-15.2v-15.4l-3.9-8.4l5.9-12.3l-5.9-14.8l-7.8-7.1l-13.5,5.9
		l-15.5-5.9l-3.3,3.9 M1645.2,235.2l8.6-13.2l-6.8-9.5l-8.9-8l-7.1-12.3l-14.8-12.3h-10.7l-11.4-6.1h-12.9l-5.9,3.1l-5.8,3
		 M1709,215.2l-9.2-10.6l-11.3-4.4l-14.8,16l-11.9,5.9h-8 M1671.5,235.2l-9.7-13.2 M1574.1,421.1l-14.8-15.4l-12.3-5.3l-7-11.3
		v-10.7h-18l-21.1,4.7l-21.6,13l-17.8,14.1c0,0-16,25-15.4,27c0.6,1.9,0,9.5,0,9.5l-13,14.9l-10.6,19.9 M1584.8,385.6l-14.5,7.8
		l-13.6,11.1l-9.6,5.7l-13.8,24.4 M1599.2,361.8l-5.1-10l-14.1-2.2l-17.2-13.8l-15.8-8.9h-4.9l-25.5,7.7l-20.7,9.5l-18.1,12.4
		 M1592.9,374.2l-12.3-5.2l-6.5,2.4l-15.1-6.5l-2.4-15.3l-14.5-9l-8.9,9h-16l-16.3,4.6l-19.9,0.2l17.3,19.6l7.7,8.1 M1611.2,302.3
		l-12-8.6l-14.4-9.2l1,13.9l-11.7,16l-27.1,16l-4.9,10.1 M1646.4,244.3l-16.6,7.9l-18.1,10.1l-15.6,8.9 M1611.7,262.3v15.5l9.6,6.7
		l4.1,7.7 M1296.2-5.2c0,0-4,14.5-4.4,19.9s8.5,23.1,8.5,23.1s20.7,27.3,22.5,29.6c1.8,2.4,14.7,18.4,15.9,22.5s9,27.3,9,27.3
		l5.3,10.7l-2.4,26.1c0,0,1.2,26.7,2.4,29c1.2,2.4,8.9,21.6,8.9,21.6s10.7,12.1,12.4,13.9c1.8,1.8,45,19,45,19l10.1,20.3l16,20
		l12.4,24.5c0,0,3.6,20.9,3.6,22.5c0,1.5,5.9,35.3,5.9,35.3l9.5,18.4l17.2,15l9.5,12.3l8,11.7c0,0,19.3,15.6,21.6,17.3
		c2.4,1.8,11.6,16.3,11.7,17s11.7,13.8,11.7,13.8l9.2-17.2v-18.4l8.3-8.8L1589,398l-4.2-12.4l11.8-16.6l5.9-12.4l9.2-19
		c0,0,5.7-25.5,6.3-26.1c0.6-0.6,7.4-2.4,7.4-2.4l-2.8-5l16.1-21.4l-6.5-11.6l-6.8-5.9v-10.6 M1353.1,127.8l-2.4-12.4l19-17.2
		l8.3-7.1l11.3-12.4V60.8l-10.1-16.6l-16-23.7l-8.9-14.8l10.1-17.2 M1331.8-8.5l-10.7,12.4v27.3l-7.1,13.6l-2.7,7.3 M1384,52.2
		l-19,11.6l-8.3,11.3l-17.9,14.8 M1397.6,228.6l1.7-10.7l20.7-21.3l0.6-16.7l6.1-17.8l-10.8-24.3l-31.9-33.2l-3.2-16.7
		 M1491.2,251.7l-5.3-11.3l-4.8-10.2l-21.8-1.6 M1538.5,298.8l-21.9-6.6l-5.9-7.7l-5.3-13.3l-10.7,6.6l-5.9,10.3l-13.6,5.6
		l-24.4-5.6 M1501.2,328.5l-6.6-11.1c0,0,1.9-5.9,3.7-8.9c1.8-3,0-9.7,0-9.7l-7.2-5.1h-16 M1229.8,518l5.9-11.3l4.4-11.1v-9.8
		l7.1-10.2l7.1-14v-13.6l-3.1-13.3l-11.1-11.5l-10.3-17.5 M1275.2,570.3l9.8-17.8l6.7-6.7l3.1-8.4l3.1-7.1l-3.1-12.3l4.9-15.3v-8.4
		c0,0,5.3-16.9,4.4-17.9s4.4-7.9,4.4-7.9l-5.6-9.2l2.9-10.4c0,0,0.9-10.2,0-11.7s-6.2-12.7-6.2-12.7v-7.1l-20,8.5l-10.5,1.4
		l-8.4-12.1l4.7-5 M1260.6,415.2l-9.5,19.6 M1299.6,417.4h21.9l35.1-2.2l9.5,2.2l14.6-1.1l24.5-6L1384,400l-14-9.7h-11.5l-33.8-4.7
		l-16.1-7.1l-19.7,9l-10.4,10.5v7.8l-13,4.4v-7.4 M1335.3,415.2l-20.7-9.5l-6.1-12.3v-7.8v-7.1l-8.7-11.9l-5,4.7L1279,373l-13.6,5.4
		l-9.9-4.5l-4.4,4.5 M1374.4,448.4l-7.7-5.2l-16-5.9l-15.4,5.7l-10.7-8.2l-18.8,2.5 M1350.7,437.3l2.5-11.4l-9.6-10.7 M1324.6,434.8
		v-4.8l-7.1-12.5 M1445.4,363.4l6.7-19.3l-16-23.7l-13.5-9.3l-12.6-6.3l-14.8-6l-25.2-6.6l-15.6,12.6V321l-6,3.8l4.8,10.8l-4.8,8.4
		l-9.6,10.7l9.6,11.9l9.4,7.4v8.1l12.1,8.2 M1370,292.2l-8.6-7.2v-7.2l-10.7-11.9l-2.3-14.2l-8.3-16.4l-5.6-6.6l-5-17.6l-8.5-11
		l-5.9-7.9l-12.4,4.4l-13.6-2.7l-8.9,6.2l-5,18.4l-2.9,16.7l-11.6-3.9h-9.5l-9.2,8.8l-2,14.1 M1251.2,231.3l4.7-9.3l13.8-25.4
		l19.4-2.7l5.6-9.8l10.3-10.2l-6.4-4v-7.7l9.9-8.3l2.8-16l-6.3-10.1 M1265.4,378.5v-7.1l-11.1-9.5l-3.1-12.3l-9.2-4.4 M1348.4,366.6
		l-9.6-4.8l-21.3,4.8l-14.8-9.8l-16,3.3l-13.2,15.1 M1239.5,338.7c0,0-3.8,3.6-4.6,2.6c-0.9-1-14.8,2.8-15.7,3.1
		c-0.9,0.2-13.6,7.5-13.6,7.5l9.2,6.5l9.2,3.5l18.1,7.2 M1361.4,277.8l8.6-11.9l10.8-3.6c0,0,15.6-4.4,17.4-4.6
		c1.8-0.2,7.1-6.1,7.1-6.1l8.3-9.4l-3.6-8.6 M1413.5,242.2l3.6,9.4l18.9,14.2l0-8.1l18.4-13.4l4.7-15.7l-4.7-6.6l-21.9,6.6l-13,8.8
		 M1117.4,298.2c-2.6-3.2-1.9-8.1,0-11.8c1.9-3.7,4.9-6.8,6.7-10.6c2.3-4.8,2.6-10.3,2.8-15.6c0.2-4.2,0.3-8.5-0.2-12.7
		c-1.1-8.1-5-15.5-9.9-22.1c-3.2-4.3-6.8-10.5-3.2-14.4c5.8,1.8,10.8-4,15.7-7.4c10.2-7.2,24.2-5.1,35.9-1c1.7,0.6,3.5,1.3,5.3,1.4
		c3.9,0.2,7.6-2,10-5.1s3.7-6.8,4.9-10.5c-4.5-2.1-9.5-4.6-11.1-9.2c-0.7-2-0.7-4.1-0.7-6.2c0-8.6,0-17.2,0-25.8c0-2,0-4.1,0.6-6
		c1-3.2,3.5-5.7,4.4-8.9c0.8-2.7,0.3-5.6,1-8.4c2.5-9.7,16.9-11.1,21.5-20c2.9-5.7,1-12.7,2.5-18.9c2.8-11.7,17-18.6,18.1-30.6
		c-9.4,0.5-18.8,0-28-1.3c-3.2-0.4-6.5-1-9.1-2.9c-2.4-1.7-4.1-4.4-6.7-5.9c-3-1.7-6.8-1.5-10.2-2.2c-6.6-1.4-13-6.7-19.3-4.2
		c-4.3,1.7-6.5,6.3-8.7,10.3s-5.7,8.3-10.3,8.1c-3-0.1-8.4-2.3-11.3-3.2 M1094.7,305.6l-1.8-11.8V281l-4.9-15.1v-10.2l-3.1-4
		l-11.6-18.1 M1146.7,198.9l2.2,11l-2.2,8.9l7.1,11.4V244l8.2,11.7 M1061.4,41.9l-1.8,10.3v6l-6.2,4.6l12.9,19.1
		c0,0,10.2,6.7,11.6,8c1.3,1.3,12,9.3,12,9.3l6.3-0.3l8.8,0.3l4.9,4.9v8 M1126.4,93.7l3.9,15.8l5.8,8.9l10.7,6.2l7.6,3.3l7.6,8.3
		l7.4,1.8c0,0,8.4,3.6,9.8,4.4c1.3,0.9,16.9,13.9,16.9,13.9l4,6.5l12,5.3 M1202,417.4l8.3-7.1l10.7-4.6h14.8h18.5l11.1-3
		c0,0-12.4-13.6-11.1-15.3c1.3-1.7-3.1-9-3.1-9l-9.2-9.5l-8-13l8-10.8l-5.7-14.7l3.7-13l-4.3-18.6l-0.6-17.6l11.3-19l-14.2-18
		l-5.9-0.4v-13.8c0,0-1.8-8.7-3-11.7c-1.2-3-5.9-5.9-5.9-5.9l-4.1-8l-8.7-12.3h-9.9l-9.3-3.8 M1217.4,212.5l-8.9-4l-9.5,1.6
		 M1217.4,156.9l-5.3-7.5l-10.2-6.2c0,0-19-11.3-16.4-12.3s-0.2-10.8-0.2-10.8l-5.6-8l-10.4-18.4l-14.9-10.5l-24.1-6.2l-7.5,2.7
		l-6.2-2.7l-9.8-12l5.3-8.5c2.1-1.1,4.1-2.2,6.2-3.3c0,5.8,1.8,11.6,5,16.4c2.5,3.7,6.1,7,6.9,11.4c1.5,8.1-6.9,14.9-8,23.1
		c-0.4,2.9,0.1,5.9-0.3,8.7c-1.6,10.3-14.4,15.7-16.5,25.8c-3.5-4.7-1.1-11.3-1.7-17.1c-0.9-7.9-7.8-14.6-7.4-22.5
		c-7.4,16.5-6.1,36.6,3.2,52.1c1.1,1.8,2.3,3.7,2.4,5.9c0,2.1-1.2,4-2.2,5.9c-7.7,13.2-11.3,28.2-14.8,43.1c2.9-1.2,5.9-2.4,8.8-3.6
		c-4.9,7.9-9.8,15.7-14.7,23.6c-4.2,6.7-9.2,14-17,15.6c-5.5,1.1-11-0.9-16.2-2.9c-9.8-3.8-19.5-7.5-29.3-11.3c-1.3-0.5-2.6-1-3.9-1
		c-2.6,0-4.8,1.8-7.1,2.9c-5,2.4-10.8,1.8-16.3,2.3c-13.4,1.2-25.4,9-34.8,18.5c-4.2,4.2-8.6,9.1-14.5,9.4 M1073.3,60.5v8.9L1084,71
		l13.4-2l9.3-4 M1148.5,37.9l8.9-21.8l-8.4-9.3v-12 M1157.4,16.1l11.8,8l6,5.8l2.8,14.5v11.3l2.6,4.9l-13.6,7.6l5.2,6.7l8.4,4
		l9.8,14.9l6.7,11.3l11.3,11.1l3.9,8.9l16.1,9.4 M1245.2,62.6l-13.2-8.1h-10.4 M1240.1,85l-4.4-4.9l-2.1-4.9l-11.8-4.2h-9.4
		 M1203.6,85.1l11.1,8.6l7,8.6l9.3,5.9 M1064.5,225.4c0,0,6.9-5.8,7.6-6.2s6.4-5.3,6.4-5.3l1.3-3.3l4.8-4.7 M1083.3,249.2l3.6-6.9
		c0,0,5.6-3.2,6.2-3.2s8.2-2.2,8.2-2.2l5.6-7.3l5.9-10.5"/>
</g>
<g id="confini">
	<path id="confini_00000108309163118568688600000010559783743563392946_" class="st15" d="M0,537.9l8.1,4.4l3.6,7.1l4,5.3l9.3-10.7
		l10.7-4l16,7.6h12.4l14.2,2.2l21.8,6.7l8,12l11.1,14.7l12,1.8c0,0,7.6,9.3,8.4,10.7c0.9,1.3,17.3,14.7,17.3,14.7l16,12l-7.1,12.9
		l3.6,5.8l4-4.9l7.1,6.2l12-0.4l10.2,0.9l17.3-2.2l3.1-6.2l2.2-12h12.4l7.6,8.4l8.9,3.6l12,8.4l8.4,6.2l12.9,6.7l20.4,8.9v15.1v12.4
		h12.4h14.7l12.9,10.2l-5.3,5.8l5.3,8.9l10.2,4l9.8,8.4l5.3,6.7h24.9v-10.2l1.8-8l8-7.6l27.6,1.8l24.4,12l12,8.9l-4.4,6.2l1.3,10.2
		l22.2,4.4l9.3-7.1l15.6-8.9l7.6-9.3l14.7,7.6l20.4-3.6l7.1-14.7l-5.3-11.1l-9.8,8.4l-21.3-4l-9.3-15.1l-19.1-8l-12.4,2.2l-9.3-7.1
		l-8-44l7.1-4l-3.1-10.7l-9.8-7.1l-0.9-8l-8.4-3.6l2.7-11.6l8-12l14.7-2.7l7.1-16.9l-15.1,4l1.3-9.8l14.2-22.7l11.1-9.3l7.6-12.9
		l16.4-14.2l22.7-15.1l32-9.8h21.3l4.4-6.2l19.1-7.1l7.6-4.9l6.7,6.9l32.4-11.4h-21.8l-6.2-5.3l6.7-7.1l12.4-6.7l19.1-9.8l14.7-5.8
		l28.9-1.8l12.4-3.6l32,4.4l20.4,0.9l10.2,3.6l13.3,2.2l15.1,7.1l26.7,9.3l15.6-2.7l23.6,13.3l9.3,8.9l8.4,12l5.3,15.1l12,3.1
		l18.2-4.4l-7.1,11.6l7.1,3.6l10.7-0.9l13.3-2.7v9.3l8.4,4.4l17.8-8.4l22.2-11.6l5.3-9.3l7.6-11.6l8.9,8.9l9.3,3.6l6.7-1.3l-2.7-12
		l6.7-10.7l18.2-0.9l10.7-3.1l23.1,9.6l15.6,8.6l27.6,15.6l18.7,17.8l8.9,2.2l2.2,3.1l9.8,5.3l19.6,21.8l18.2,8.9l8.9,10.7
		l11.1,11.6l12.9,4l8.9,6.7l5.3,9.8l11.1,8.9l6.7,8.9l9.8,9.3l12,7.6l11.6,11.6l14.7,11.1l24.9,16l33.8,25.3l4,16.9l43.1,36l28,28.9
		l9.8,15.1l20.4,16.8l8.1,9.3l19.9,15.7l22.2,33.8c0,0,29.3,28.4,32,30.2c2.7,1.8,24.9,29.3,24.9,29.3l8,5 M1875.7,228.6l-20.5-4.5
		l-8.9-11.6l-24.3,2.2l-12.1,5.3l-6.7,15.1l-2.2,9.1l-10.7,6.9c0,0-10.2-4.9-12-6.9c-1.8-2-4-9.1-4-9.1l-7.1-11.1l-6.2-4l-17.5,20.4
		l-5.1,12l-13.3,2.2l-10.7-3.9l-12.9,7l-7.6,13.4l-5.3,11.1l-12.4,9.9l-9.4-4.1l-4.8-10.3l-13,4.5l-13.2,24l13.2,12.4l13,13.8
		l-16.3,17l-13.3,21.8l2.7,8.6l16.9-4.7l16-5.3c0,0,1.5,5.6,1.2,7.1s9.8,8.6,9.8,8.6l2.7,5.9l10.4,6.2l3.6,5.9l-7.7,8.6l-6.5,5
		l-9.8-14.2l-12.4-13l-5.1,4.7c0,0,1.6,8.9,1.3,9.8s-3,11-3,11v10.4l6.2,10.4l7.4,9.8v11l-11.9,6.5l-10.6-1.8h-11h-9.6l-8.7,8.3
		l-6.2,13.3l-8.4,15.4l-9.1,9.2h-5.3c0,0-2.7-7.1-3.9-8.6s0-7.7,0-7.7v-7.7l-6.8-4.1l-5.9,7.5l-9.2,9.4c0,0-7.4,5.6-8.9,5
		s-7.4-1.8-7.4-1.8s-8-8.6-9.5-9.5c-1.5-0.9-2.4-8.8-2.4-8.8l-3.6-4.4l-10.4,7.3l5.1,9.3l-11.3,7.6l-28.4-1.9l-11.6,4.9l-14.5,17.9
		l-5.9,2.4l-14.2-3.6l-15.7-3.2l-11-4.4l-14.2,1.1l-11.1,4.1l-5.2,11l2.4,16c0,0-4.1,12.1-4.7,13c-0.6,0.9-6.5,16-7.1,16.9
		c-0.6,0.9-4.4,13-4.4,13l-6.5,9.5l-14.8,31.4l-4.8,9.6"/>
</g>
<g id="citta-grandi">
	<path id="citta-grandi_00000086693415507171566380000018336864055798979256_" class="st16" d="M482.3,712.1
		C482.3,712.1,482.3,712.1,482.3,712.1S482.3,712.1,482.3,712.1L482.3,712.1C482.3,712.1,482.3,712.1,482.3,712.1z M438.7,566.3
		C438.7,566.3,438.7,566.3,438.7,566.3L438.7,566.3C438.7,566.3,438.7,566.3,438.7,566.3C438.7,566.3,438.7,566.3,438.7,566.3z
		 M617.4,415.2C617.4,415.2,617.4,415.2,617.4,415.2S617.4,415.2,617.4,415.2C617.4,415.2,617.4,415.2,617.4,415.2L617.4,415.2z
		 M496.5,457.3C496.5,457.3,496.5,457.3,496.5,457.3C496.5,457.3,496.5,457.3,496.5,457.3C496.5,457.3,496.5,457.3,496.5,457.3
		L496.5,457.3z M294.7,231.2C294.7,231.2,294.7,231.2,294.7,231.2S294.7,231.2,294.7,231.2L294.7,231.2
		C294.7,231.2,294.7,231.2,294.7,231.2z M837.8,321L837.8,321L837.8,321L837.8,321L837.8,321z M1094.7,305.6L1094.7,305.6
		L1094.7,305.6L1094.7,305.6L1094.7,305.6z M1048.5,410.3L1048.5,410.3C1048.5,410.3,1048.5,410.3,1048.5,410.3
		S1048.5,410.3,1048.5,410.3S1048.5,410.3,1048.5,410.3z M1389.8,495.2L1389.8,495.2L1389.8,495.2
		C1389.8,495.2,1389.8,495.2,1389.8,495.2S1389.8,495.2,1389.8,495.2z M1270.7,404.5L1270.7,404.5L1270.7,404.5L1270.7,404.5
		L1270.7,404.5z M1237.8,249.2C1237.8,249.2,1237.8,249.2,1237.8,249.2L1237.8,249.2L1237.8,249.2
		C1237.8,249.2,1237.8,249.2,1237.8,249.2z M1094.7,103.2L1094.7,103.2L1094.7,103.2C1094.7,103.2,1094.7,103.2,1094.7,103.2
		C1094.7,103.2,1094.7,103.2,1094.7,103.2z M751.6,277.3L751.6,277.3L751.6,277.3L751.6,277.3L751.6,277.3z M1205.5,88L1205.5,88
		L1205.5,88L1205.5,88L1205.5,88z M1492.3,252.1C1492.3,252.1,1492.3,252.1,1492.3,252.1C1492.3,252.1,1492.3,252.1,1492.3,252.1
		L1492.3,252.1L1492.3,252.1z M1587.2,196.5L1587.2,196.5L1587.2,196.5C1587.2,196.5,1587.2,196.5,1587.2,196.5
		S1587.2,196.5,1587.2,196.5z M1770.6,434.8C1770.6,434.8,1770.6,434.8,1770.6,434.8L1770.6,434.8
		C1770.6,434.8,1770.6,434.8,1770.6,434.8S1770.6,434.8,1770.6,434.8z M1705.2,560.2L1705.2,560.2
		C1705.2,560.2,1705.2,560.2,1705.2,560.2C1705.2,560.2,1705.2,560.2,1705.2,560.2L1705.2,560.2z M1459.2,592.3
		C1459.2,592.3,1459.2,592.3,1459.2,592.3L1459.2,592.3L1459.2,592.3C1459.2,592.3,1459.2,592.3,1459.2,592.3z M1751.1,752.1
		L1751.1,752.1C1751.1,752.1,1751.1,752.1,1751.1,752.1S1751.1,752.1,1751.1,752.1S1751.1,752.1,1751.1,752.1z"/>
</g>
<g id="citta-medie_00000104687967616767464700000007910248058869105541_">
	<path id="citta-medie" class="st17" d="M1185.8,417.4L1185.8,417.4L1185.8,417.4C1185.8,417.4,1185.8,417.4,1185.8,417.4
		S1185.8,417.4,1185.8,417.4z M1237.8,329C1237.8,329,1237.8,329,1237.8,329S1237.8,329,1237.8,329L1237.8,329
		C1237.8,329,1237.8,329,1237.8,329z M954.7,282.3L954.7,282.3C954.7,282.3,954.7,282.3,954.7,282.3
		C954.7,282.3,954.7,282.3,954.7,282.3C954.7,282.3,954.7,282.3,954.7,282.3z M1100.9,251.7L1100.9,251.7
		C1100.9,251.7,1100.9,251.7,1100.9,251.7C1100.9,251.7,1100.9,251.7,1100.9,251.7C1100.9,251.7,1100.9,251.7,1100.9,251.7z
		 M364.1,343.7L364.1,343.7C364.1,343.7,364.1,343.7,364.1,343.7S364.1,343.7,364.1,343.7L364.1,343.7z M276.1,627.6
		C276.1,627.6,276.1,627.6,276.1,627.6L276.1,627.6L276.1,627.6C276.1,627.6,276.1,627.6,276.1,627.6z M126.7,404.5L126.7,404.5
		C126.7,404.5,126.7,404.5,126.7,404.5C126.7,404.5,126.7,404.5,126.7,404.5C126.7,404.5,126.7,404.5,126.7,404.5z M284.1,461.7
		C284.1,461.7,284.1,461.7,284.1,461.7C284.1,461.7,284.1,461.7,284.1,461.7C284.1,461.7,284.1,461.7,284.1,461.7L284.1,461.7z
		 M733.4,335.6L733.4,335.6L733.4,335.6C733.4,335.6,733.4,335.6,733.4,335.6C733.4,335.6,733.4,335.6,733.4,335.6z M1032.1,343.7
		L1032.1,343.7C1032.1,343.7,1032.1,343.7,1032.1,343.7S1032.1,343.7,1032.1,343.7L1032.1,343.7z M1500.9,330.5
		C1500.9,330.5,1500.9,330.5,1500.9,330.5S1500.9,330.5,1500.9,330.5S1500.9,330.5,1500.9,330.5L1500.9,330.5z M1358.7,425.9
		C1358.7,425.9,1358.7,425.9,1358.7,425.9S1358.7,425.9,1358.7,425.9L1358.7,425.9L1358.7,425.9z M1587.2,379.7
		C1587.2,379.7,1587.2,379.7,1587.2,379.7S1587.2,379.7,1587.2,379.7S1587.2,379.7,1587.2,379.7L1587.2,379.7z M1550.7,461.7
		L1550.7,461.7C1550.7,461.7,1550.7,461.7,1550.7,461.7C1550.7,461.7,1550.7,461.7,1550.7,461.7L1550.7,461.7z M1730.3,601.4
		L1730.3,601.4L1730.3,601.4L1730.3,601.4L1730.3,601.4z M1607.2,873C1607.2,873,1607.2,873,1607.2,873S1607.2,873,1607.2,873
		S1607.2,873,1607.2,873L1607.2,873z M1237.8,521C1237.8,521,1237.8,521,1237.8,521C1237.8,521,1237.8,521,1237.8,521
		C1237.8,521,1237.8,521,1237.8,521L1237.8,521z M948.1,461.7C948.1,461.7,948.1,461.7,948.1,461.7
		C948.1,461.7,948.1,461.7,948.1,461.7L948.1,461.7L948.1,461.7z M546.7,444.4C546.7,444.4,546.7,444.4,546.7,444.4
		S546.7,444.4,546.7,444.4L546.7,444.4C546.7,444.4,546.7,444.4,546.7,444.4z M1048.5,450.3L1048.5,450.3
		C1048.5,450.3,1048.5,450.3,1048.5,450.3C1048.5,450.3,1048.5,450.3,1048.5,450.3L1048.5,450.3z"/>
</g>
<g id="citta-piccole">
	<path id="citta-piccole_00000111907216215011068240000007751726110461463463_" class="st18" d="M953.1,413.2
		C953.1,413.2,953.1,413.2,953.1,413.2S953.1,413.2,953.1,413.2L953.1,413.2L953.1,413.2z M863.6,410.2L863.6,410.2L863.6,410.2
		L863.6,410.2L863.6,410.2z M557.8,400L557.8,400L557.8,400L557.8,400L557.8,400z M1291.6,204.6
		C1291.6,204.6,1291.6,204.6,1291.6,204.6C1291.6,204.6,1291.6,204.6,1291.6,204.6L1291.6,204.6
		C1291.6,204.6,1291.6,204.6,1291.6,204.6z M1522,93.7C1522,93.7,1522,93.7,1522,93.7L1522,93.7C1522,93.7,1522,93.7,1522,93.7
		C1522,93.7,1522,93.7,1522,93.7z M1772.3,171.6C1772.3,171.6,1772.3,171.6,1772.3,171.6C1772.3,171.6,1772.3,171.6,1772.3,171.6
		C1772.3,171.6,1772.3,171.6,1772.3,171.6L1772.3,171.6z M1837.4,240.1L1837.4,240.1C1837.4,240.1,1837.4,240.1,1837.4,240.1
		S1837.4,240.1,1837.4,240.1S1837.4,240.1,1837.4,240.1z M1778.3,391.8L1778.3,391.8L1778.3,391.8L1778.3,391.8L1778.3,391.8z
		 M1653.3,649C1653.3,649,1653.3,649,1653.3,649L1653.3,649C1653.3,649,1653.3,649,1653.3,649S1653.3,649,1653.3,649z M1426.7,659.3
		L1426.7,659.3L1426.7,659.3L1426.7,659.3L1426.7,659.3z M210.6,309.9C210.6,309.9,210.6,309.9,210.6,309.9
		C210.6,309.9,210.6,309.9,210.6,309.9L210.6,309.9L210.6,309.9z M179.5,591L179.5,591L179.5,591C179.5,591,179.5,591,179.5,591
		C179.5,591,179.5,591,179.5,591z M141.8,568.8C141.8,568.8,141.8,568.8,141.8,568.8L141.8,568.8L141.8,568.8
		C141.8,568.8,141.8,568.8,141.8,568.8z"/>
</g>
<g id="collegamento-sotto">
	<path id="collegamento-sotto_00000176730534390789444270000011810194714969569707_" class="st15" d="M616.8,413.9
		c94.2-255.8,431.7-422.4,653.9-9.3 M1751.1,752.1c-61.3-442.8-263.8-455-361.2-256.9 M750.7,277.4C629,1.5,361.4,146.3,284.1,461.7
		 M1550.7,461.7c-125-301.7-355.5-365-502.2-51.4 M1237.8,249.2c-53.2-150.8-220.1-130.5-283.1,33.2 M496.5,457.3
		c-36.1-166.6-212.4-283.4-369.8-52.7 M1770.6,434.8c-84.8-246.8-196.4-296.9-279.4-183.1 M1358.7,425.9
		c-36.3-112.7-113-137.9-172.9-8.5 M948.1,461.7c-36.9-210-150.2-221.6-214.7-126.1 M438.7,566.3c-58.7-89.8-120-34.7-162.7,61.3"/>
</g>
<g id="collegamento-sopra">
	<path id="collegamento-sopra_00000138557914185029185930000013169457260735718038_" class="st19" d="M616.8,413.9
		c94.2-255.8,431.7-422.4,653.9-9.3 M1751.1,752.1c-61.3-442.8-263.8-455-361.2-256.9 M750.7,277.4C629,1.5,361.4,146.3,284.1,461.7
		 M1550.7,461.7c-125-301.7-355.5-365-502.2-51.4 M1237.8,249.2c-53.2-150.8-220.1-130.5-283.1,33.2 M496.5,457.3
		c-36.1-166.6-212.4-283.4-369.8-52.7 M1770.6,434.8c-84.8-246.8-196.4-296.9-279.4-183.1 M1358.7,425.9
		c-36.3-112.7-113-137.9-172.9-8.5 M948.1,461.7c-36.9-210-150.2-221.6-214.7-126.1 M438.7,566.3c-58.7-89.8-120-34.7-162.7,61.3"/>
</g>
</svg>
